<svg width="15" height="15" viewBox="0 0 15 15" fill="none" xmlns="http://www.w3.org/2000/svg">
<path fill-rule="evenodd" clip-rule="evenodd" d="M14.3718 0.962769C14.4542 1.04567 14.5004 1.15808 14.5004 1.2753C14.5004 1.39251 14.4542 1.50493 14.3718 1.58782L9.96227 6.02378C10.3169 6.02687 10.6847 6.02201 11.0757 6.0167C11.4167 6.01228 11.7748 6.00786 12.1567 6.00786C13.2043 6.00786 13.9311 6.42162 14.3836 7.08027C14.8165 7.71019 14.9659 8.51428 14.9944 9.25515C15.0239 10.0044 14.9316 10.7448 14.8345 11.2908C14.7837 11.5779 14.7222 11.8629 14.6499 12.1453L14.6469 12.155V14.5367C14.6469 14.654 14.6006 14.7664 14.5182 14.8493C14.4357 14.9322 14.324 14.9788 14.2074 14.9788H12.3035C12.1869 14.9788 12.0752 14.9322 11.9927 14.8493C11.9103 14.7664 11.864 14.654 11.864 14.5367C11.864 14.1623 11.9203 13.875 12.0266 13.6447C12.1356 13.4077 12.2815 13.2681 12.3883 13.1748L12.4524 13.1182C11.6975 12.681 11.2541 12.315 10.9048 11.8482C10.7185 11.5998 10.5673 11.3337 10.4109 11.0388C10.3495 10.9224 10.2887 10.8057 10.2285 10.6887C10.1697 10.5747 10.1082 10.4553 10.0409 10.3271L7.0305 11.3306V13.7738C7.0305 14.0558 6.98612 14.3484 6.80156 14.5827C6.61086 14.825 6.33886 14.9187 6.08532 14.9607C5.83485 15.0018 5.5299 15.0031 5.19375 14.9978C5.12402 14.9966 5.0543 14.9953 4.98459 14.9938L4.85276 14.9912C4.55343 14.9836 4.25403 14.9795 3.9546 14.9788C3.77444 14.9788 3.5833 14.9005 3.46773 14.7158C3.3715 14.5624 3.3671 14.3975 3.37589 14.2927C3.39391 14.0761 3.49014 13.844 3.60263 13.6509C3.72657 13.4348 3.88599 13.2414 4.07412 13.0789C4.2556 12.9264 4.50563 12.7796 4.80047 12.7694V12.7677C4.80358 12.687 4.80094 12.6062 4.79256 12.5259C4.77841 12.3861 4.76142 12.2467 4.74159 12.1077C4.69677 11.7708 4.63877 11.3381 4.61987 10.8708C4.21825 10.6976 3.89792 10.5039 3.65756 10.2595C3.34997 9.94563 3.20848 9.58226 3.15311 9.17072C3.10038 8.78171 3.12279 8.32508 3.15223 7.81451L3.16102 7.6651C3.18167 7.30439 3.20496 6.90036 3.21595 6.4393C2.7383 6.56042 2.21233 6.57987 1.75753 6.57987C0.869916 6.57987 0.439291 5.82309 0.247267 5.30368C0.158141 5.05756 0.0913697 4.80382 0.0477734 4.54557C0.0293503 4.43915 0.0146938 4.33211 0.00383181 4.22464L0.00207428 4.20342L0.00119531 4.19723V4.19414C-0.0059687 4.09661 0.0192164 3.99945 0.0728076 3.91786C0.126399 3.83627 0.205371 3.77487 0.29736 3.74325L0.496854 3.67429C0.935953 3.52302 1.37478 3.37096 1.81334 3.2181C1.88672 2.99044 2.0225 2.77472 2.16575 2.59879C2.39117 2.32162 2.70227 2.05728 3.05424 1.89151C3.40577 1.72663 3.84167 1.64087 4.27142 1.80841C4.70688 1.97815 5.03468 2.36804 5.24516 2.93917C5.58351 3.85642 5.96184 4.48501 6.37533 4.92264C6.78399 5.35496 7.24361 5.61753 7.77706 5.77888C8.10298 5.87372 8.43712 5.93722 8.77497 5.96852L13.7505 0.962769C13.8329 0.879898 13.9446 0.833344 14.0611 0.833344C14.1776 0.833344 14.2894 0.879898 14.3718 0.962769ZM7.52352 6.6254C7.67995 6.67226 7.8399 6.71205 8.00248 6.74476L7.06829 7.68499H4.03985C4.06621 7.22394 4.09785 6.67138 4.10093 6.01538C4.20419 5.92962 4.29866 5.82972 4.38083 5.7139C4.58384 5.4279 4.6871 5.07691 4.6871 4.66802H3.80828C3.80828 4.92264 3.74632 5.08664 3.66547 5.20024C3.58286 5.31694 3.45543 5.41463 3.27131 5.49288C2.88551 5.65644 2.34415 5.69578 1.75753 5.69578C1.47367 5.69578 1.24474 5.46414 1.07073 4.99513C1.00791 4.82129 0.959414 4.64254 0.925722 4.46069L1.26099 4.34488C1.62241 4.22053 1.98332 4.0947 2.34371 3.96737C2.42934 3.93684 2.50346 3.88037 2.55587 3.80572C2.60828 3.73107 2.6364 3.64191 2.63636 3.55052C2.63636 3.51339 2.6781 3.36486 2.84596 3.15798C3.00063 2.9679 3.21111 2.79373 3.42687 2.69206C3.64306 2.59039 3.82014 2.58022 3.95416 2.63238C4.08115 2.68189 4.26615 2.826 4.4217 3.24683C4.78729 4.23702 5.21879 4.98143 5.73862 5.53134C6.26284 6.08611 6.85913 6.42427 7.52352 6.62496V6.6254ZM6.45311 10.5919L6.81079 10.4725V8.56909H4.0003C3.99854 8.75475 4.00469 8.91256 4.02403 9.05225C4.06006 9.31969 4.13828 9.49076 4.28328 9.63885C4.44367 9.8024 4.71698 9.9695 5.20825 10.156C5.29175 10.1877 5.36369 10.2443 5.41447 10.3181C5.46526 10.3919 5.49249 10.4796 5.49255 10.5694C5.49255 11.091 5.55055 11.5189 5.6024 11.9048C5.62833 12.0935 5.6525 12.2726 5.66788 12.4476C5.68765 12.6739 5.70039 12.9648 5.58966 13.2066C5.52405 13.3533 5.41245 13.4742 5.27196 13.551C5.13656 13.6213 4.98576 13.6562 4.83343 13.6526C4.81322 13.6526 4.74555 13.6663 4.63833 13.757C4.52799 13.8539 4.43443 13.9686 4.3615 14.0965L4.36106 14.0978C4.54957 14.1 4.72401 14.104 4.88396 14.1075L5.20781 14.1137C5.55143 14.1194 5.78168 14.1146 5.94339 14.0881C5.99373 14.0816 6.04296 14.0682 6.08971 14.0483C6.09653 14.0451 6.10301 14.0413 6.10905 14.0368L6.10993 14.0363L6.113 14.0337C6.11388 14.0324 6.15167 13.9837 6.15167 13.7738V11.0114C6.15171 10.9185 6.18086 10.8279 6.23497 10.7526C6.28908 10.6773 6.36541 10.6211 6.45311 10.5919ZM9.10936 6.88179L7.68962 8.31005V10.1799L10.1147 9.37096C10.2124 9.33843 10.3183 9.3414 10.4141 9.37937C10.5098 9.41734 10.5892 9.48789 10.6385 9.57873C10.7822 9.84307 10.9074 10.0853 11.0173 10.2975C11.0784 10.416 11.1346 10.5247 11.1865 10.6228C11.3372 10.9075 11.4633 11.1246 11.6066 11.3164C11.8834 11.6855 12.2573 12.0038 13.1014 12.471C13.1538 12.5001 13.1997 12.5396 13.2363 12.5871C13.273 12.6346 13.2996 12.6891 13.3146 12.7473C13.3805 13.0024 13.3923 13.2486 13.282 13.4758C13.1981 13.6482 13.0505 13.7707 12.985 13.825L12.9788 13.8299C12.9738 13.8341 12.9688 13.8384 12.9639 13.8427C12.898 13.9002 12.8576 13.9431 12.8233 14.0164C12.8119 14.0418 12.8022 14.068 12.7943 14.0947H13.768V12.1921L12.3439 9.07568L13.1423 8.70657L14.0413 10.6737C14.0976 10.2493 14.1349 9.76748 14.116 9.29007C14.0901 8.61904 13.9557 8.01211 13.6608 7.58332C13.3857 7.18327 12.9406 6.89196 12.1571 6.89196C11.803 6.89196 11.4541 6.89638 11.1144 6.9008C10.6283 6.91004 10.1421 6.91092 9.65599 6.90345C9.47144 6.89903 9.28908 6.8924 9.10936 6.88135V6.88179Z" fill="#118A57"/>
</svg>
